HIERARCHY
ROOT Hips
{
	OFFSET	0.00	0.00	0.00
	CHANNELS 6 Xposition Yposition Zposition Zrotation Xrotation Yrotation
	JOINT LeftUpLeg
	{
		OFFSET	 0.126116	-0.014019	-0.065224
		CHANNELS 3 Zrotation Xrotation Yrotation
		JOINT LeftLeg
		{
			OFFSET	 0.000000	 0.000000	 0.569914
			CHANNELS 3 Zrotation Xrotation Yrotation
			JOINT LeftFoot
			{
				OFFSET	 0.000000	 0.000000	 0.544423
				CHANNELS 3 Zrotation Xrotation Yrotation
				JOINT LeftToeBase
				{
					OFFSET	 0.000000	 0.000000	 0.207117
					CHANNELS 3 Zrotation Xrotation Yrotation
					End Site
					{
						OFFSET	 0.000000	 0.000000	 0.207117
					}
				}
			}
		}
	}
	JOINT RightUpLeg
	{
		OFFSET	-0.124023	-0.008373	-0.065224
		CHANNELS 3 Zrotation Xrotation Yrotation
		JOINT RightLeg
		{
			OFFSET	 0.000000	 0.000000	 0.570047
			CHANNELS 3 Zrotation Xrotation Yrotation
			JOINT RightFoot
			{
				OFFSET	 0.000000	 0.000000	 0.544354
				CHANNELS 3 Zrotation Xrotation Yrotation
				JOINT RightToeBase
				{
					OFFSET	 0.000000	 0.000000	 0.207540
					CHANNELS 3 Zrotation Xrotation Yrotation
					End Site
					{
						OFFSET	 0.000000	 0.000000	 0.207540
					}
				}
			}
		}
	}
	JOINT Spine
	{
		OFFSET	 0.000184	-0.007763	 0.117403
		CHANNELS 3 Zrotation Xrotation Yrotation
		JOINT Spine1
		{
			OFFSET	 0.000000	 0.000000	 0.137269
			CHANNELS 3 Zrotation Xrotation Yrotation
			JOINT Spine2
			{
				OFFSET	 0.000000	 0.000000	 0.156879
				CHANNELS 3 Zrotation Xrotation Yrotation
				JOINT LeftShoulder
				{
					OFFSET	 0.080501	-0.002496	 0.160144
					CHANNELS 3 Zrotation Xrotation Yrotation
					JOINT LeftArm
					{
						OFFSET	 0.000000	 0.000000	 0.164363
						CHANNELS 3 Zrotation Xrotation Yrotation
						JOINT LeftForeArm
						{
							OFFSET	 0.000000	 0.000000	 0.364576
							CHANNELS 3 Zrotation Xrotation Yrotation
							JOINT LeftHand
							{
								OFFSET	 0.000000	 0.000000	 0.360812
								CHANNELS 3 Zrotation Xrotation Yrotation
								JOINT LeftHandIndex1
								{
									OFFSET	 0.000000	 0.000000	 0.086006
									CHANNELS 3 Zrotation Xrotation Yrotation
									JOINT LeftHandIndex2
									{
										OFFSET	 0.000000	 0.000000	 0.047236
										CHANNELS 3 Zrotation Xrotation Yrotation
										JOINT LeftHandIndex3
										{
											OFFSET	-0.004284	-0.000551	 0.038166
											CHANNELS 3 Zrotation Xrotation Yrotation
											End Site
											{
												OFFSET	-0.004284	-0.000551	 0.038166
											}
										}
									}
								}
							}
						}
					}
				}
				JOINT Neck
				{
					OFFSET	 0.000000	 0.000000	 0.176489
					CHANNELS 3 Zrotation Xrotation Yrotation
					JOINT Head
					{
						OFFSET	 0.000000	-0.001747	 0.077940
						CHANNELS 3 Zrotation Xrotation Yrotation
						End Site
						{
							OFFSET	 0.000000	-0.001747	 0.077940
						}
					}
				}
				JOINT RightShoulder
				{
					OFFSET	-0.080363	 0.000306	 0.159706
					CHANNELS 3 Zrotation Xrotation Yrotation
					JOINT RightArm
					{
						OFFSET	 0.000000	 0.000000	 0.164196
						CHANNELS 3 Zrotation Xrotation Yrotation
						JOINT RightForeArm
						{
							OFFSET	 0.000000	 0.000000	 0.365611
							CHANNELS 3 Zrotation Xrotation Yrotation
							JOINT RightHand
							{
								OFFSET	 0.000000	 0.000000	 0.360648
								CHANNELS 3 Zrotation Xrotation Yrotation
								JOINT RightHandIndex1
								{
									OFFSET	 0.000000	 0.000000	 0.069977
									CHANNELS 3 Zrotation Xrotation Yrotation
									JOINT RightHandIndex2
									{
										OFFSET	 0.000000	 0.000000	 0.052305
										CHANNELS 3 Zrotation Xrotation Yrotation
										JOINT RightHandIndex3
										{
											OFFSET	 0.009002	-0.000782	 0.042196
											CHANNELS 3 Zrotation Xrotation Yrotation
											End Site
											{
												OFFSET	 0.009002	-0.000782	 0.042196
											}
										}
									}
								}
							}
						}
					}
				}
			}
		}
	}
}
MOTION
Frames:    9
Frame Time: 0.03333334
-0.000498	 0.019796	 1.270389	 0.004032	 0.007280	-0.099069	 4.921036	-1.836532	 177.002200	 1.479094	-11.479080	-0.669368	-8.613557	 70.496840	 2.667661	-2.385833	 28.452760	 0.000004	-5.027394	-2.541827	-176.861800	-1.454228	-12.410710	 0.712033	 8.511298	 70.846760	-2.717579	 2.384658	 28.388730	 0.000004	 2.206276	 2.724063	-0.018714	 1.186202	 3.667131	 0.482961	-3.563718	-4.621474	-0.788243	-91.776180	 78.527470	 180.000000	 56.334430	 38.835850	-60.387990	-8.226265	 0.187143	-0.497181	-29.218370	 2.044999	-4.352541	-2.635965	 4.993658	 6.788941	-5.165319	 0.784187	 3.516649	-5.225038	 0.466231	 0.424329	-0.000002	-3.783157	-0.089647	-3.453944	 4.936063	 0.148902	 89.782150	 78.203890	 180.000000	-62.865360	 41.435160	 55.322350	 8.053218	 3.173168	 7.214633	 28.500910	 1.213414	 8.934507	 6.112037	 4.509576	-0.364401	 4.968462	 1.518543	-9.347576	 5.168945	 0.703820	 2.021906
-0.000504	 0.020214	 1.264173	 0.004035	 0.007284	-0.099064	 5.431221	-4.431047	 177.150300	 1.400731	-16.726930	-0.990624	-10.464740	 73.079550	 4.619565	-2.385833	 28.452760	 0.000004	-5.537919	-5.005831	-176.997900	-1.376744	-17.385670	 1.013121	 10.259430	 73.297330	-4.557662	 2.384658	 28.388730	 0.000004	 1.171488	 2.724057	-0.018718	 1.186198	 3.667124	 0.482969	-3.563712	-4.621470	-0.788246	-91.776200	 78.527450	-180.000000	 56.201210	 38.775680	-60.174080	-8.835711	 0.197402	-0.834412	-29.218340	 2.045007	-4.352536	-2.635965	 4.993658	 6.788941	-5.165319	 0.784187	 3.516649	-5.225038	 0.466231	 0.424329	-0.000002	-3.783157	-0.089647	-3.453945	 4.936062	 0.148902	 89.782150	 78.203890	 179.999900	-62.451580	 41.011810	 55.973330	 7.971131	 3.181431	 7.584279	 28.385400	 0.839463	 8.701629	 6.112037	 4.509576	-0.364401	 4.968462	 1.518543	-9.347576	 5.168945	 0.703820	 2.021906
-0.000509	 0.020680	 1.257320	 0.004035	 0.007284	-0.099064	 6.036783	-6.601077	 177.252100	 1.309652	-21.092360	-1.271469	-12.512790	 75.198640	 6.753311	-2.385833	 28.452760	 0.000004	-6.140986	-7.115144	-177.094900	-1.286749	-21.620710	 1.282499	 12.220400	 75.357140	-6.598323	 2.384658	 28.388730	 0.000004	-0.268397	 2.724058	-0.018718	 1.186199	 3.667126	 0.482962	-3.563718	-4.621472	-0.788242	-91.776150	 78.527430	 180.000000	 56.013970	 38.707440	-59.881440	-9.680737	 0.221548	-1.299309	-29.218330	 2.044995	-4.352527	-2.635965	 4.993658	 6.788941	-5.165319	 0.784187	 3.516649	-5.225038	 0.466231	 0.424329	-0.000002	-3.783157	-0.089647	-3.453946	 4.936062	 0.148902	 89.782170	 78.203870	 179.999900	-61.882460	 40.000390	 57.780830	 7.594976	 3.023862	 7.781847	 28.661360	-0.003410	 8.208193	 6.112037	 4.509576	-0.364401	 4.968462	 1.518543	-9.347576	 5.168945	 0.703820	 2.021906
-0.000512	 0.021095	 1.251337	 0.004035	 0.007284	-0.099064	 6.582547	-8.195973	 177.314400	 1.226292	-24.286500	-1.487490	-14.433380	 76.727030	 8.737899	-2.385833	 28.452760	 0.000004	-6.684232	-8.680173	-177.155400	-1.204371	-24.748430	 1.491663	 14.068910	 76.858250	-8.506642	 2.384658	 28.388730	 0.000004	-1.714812	 2.724068	-0.018717	 1.186199	 3.667097	 0.482962	-3.563713	-4.621454	-0.788244	-91.776190	 78.527450	-180.000000	 55.801750	 38.630990	-59.545710	-10.531630	 0.261721	-1.772691	-29.218350	 2.044997	-4.352535	-2.635965	 4.993658	 6.788941	-5.165319	 0.784187	 3.516649	-5.225038	 0.466231	 0.424329	-0.000002	-3.783157	-0.089647	-3.453943	 4.936063	 0.148902	 89.782160	 78.203900	 179.999900	-60.036270	 38.376450	 57.511940	 6.607846	 4.695570	 12.482270	 28.659610	-0.884635	 7.581116	 6.112037	 4.509576	-0.364401	 4.968462	 1.518543	-9.347576	 5.168945	 0.703820	 2.021906
-0.000515	 0.021551	 1.244993	 0.004035	 0.007284	-0.099064	 7.172276	-9.698108	 177.363500	 1.133686	-27.283410	-1.700299	-16.689610	 78.138760	 11.055260	-2.385833	 28.452760	 0.000004	-7.271358	-10.161360	-177.203900	-1.112849	-27.696910	 1.698722	 16.246690	 78.252900	-10.741640	 2.384658	 28.388730	 0.000004	-3.411041	 2.724068	-0.018717	 1.186198	 3.667095	 0.482961	-3.563713	-4.621454	-0.788240	-91.776220	 78.527470	-180.000000	 55.526060	 38.526240	-59.103350	-11.637050	 0.329273	-2.336722	-29.125930	 2.057143	-4.337570	-2.635965	 4.993658	 6.788941	-5.165319	 0.784187	 3.516649	-5.225038	 0.466231	 0.424329	-0.000002	-3.783157	-0.089647	-3.453943	 4.936063	 0.148902	 89.782150	 78.203900	 180.000000	-57.434600	 36.195610	 59.222320	 4.845573	 5.621202	 16.256540	 27.898040	-2.054360	 6.354650	 6.112037	 4.509576	-0.364401	 4.968462	 1.518543	-9.347576	 5.168945	 0.703820	 2.021906
-0.000518	 0.022008	 1.238706	 0.004035	 0.007284	-0.099064	 7.757890	-11.036360	 177.399600	 1.038482	-29.943690	-1.899050	-19.195450	 79.368270	 13.616310	-2.385833	 28.452760	 0.000004	-7.854609	-11.485280	-177.240200	-1.018736	-30.322430	 1.892740	 18.671520	 79.472940	-13.218120	 2.384658	 28.388730	 0.000004	-5.200315	 2.724059	-0.018718	 1.186200	 3.667120	 0.482949	-3.563720	-4.621471	-0.788237	-91.776180	 78.527430	 180.000000	 55.193790	 38.392680	-58.564550	-12.767590	 0.424401	-2.942604	-29.087840	 2.062159	-4.331356	-2.635965	 4.993658	 6.788941	-5.165319	 0.784187	 3.516649	-5.225038	 0.466231	 0.424329	-0.000002	-3.783157	-0.089647	-3.453943	 4.936063	 0.148902	 89.782100	 78.203870	 180.000000	-54.121710	 33.793250	 63.367420	 2.800601	 5.385879	 17.611850	 26.589040	-3.164597	 4.783635	 6.112037	 4.509576	-0.364401	 4.968462	 1.518543	-9.347576	 5.168945	 0.703820	 2.021906
-0.000520	 0.022466	 1.232142	 0.004035	 0.007284	-0.099064	 8.351302	-12.279330	 177.426700	 0.938187	-32.406170	-2.092749	-22.089210	 80.480030	 16.562020	-2.385833	 28.452760	 0.000004	-8.445856	-12.717640	-177.268100	-0.919582	-32.757790	 2.082247	 21.478930	 80.580220	-16.074090	 2.384658	 28.388730	 0.000004	-7.073570	 2.724069	-0.018717	 1.186200	 3.667099	 0.482953	-3.563719	-4.621456	-0.788240	-91.776200	 78.527470	-180.000000	 54.797160	 38.221160	-57.910640	-13.998290	 0.555137	-3.599152	-29.045190	 2.067768	-4.324484	-2.635965	 4.993658	 6.788941	-5.165319	 0.784187	 3.516649	-5.225038	 0.466231	 0.424329	-0.000002	-3.783157	-0.089647	-3.453945	 4.936062	 0.148902	 89.782200	 78.203890	 179.999900	-49.620100	 30.703850	 67.751050	 0.546692	 5.259982	 19.596490	 24.591510	-3.947608	 2.958840	 6.112037	 4.509576	-0.364401	 4.968462	 1.518543	-9.347576	 5.168945	 0.703820	 2.021906
-0.000521	 0.022910	 1.225220	 0.004035	 0.007284	-0.099064	 8.956290	-13.456820	 177.446800	 0.831529	-34.731170	-2.285605	-25.508490	 81.498460	 20.031120	-2.385833	 28.452760	 0.000004	-9.048875	-13.887010	-177.289300	-0.814112	-35.060820	 2.271264	 24.806670	 81.598240	-19.448310	 2.384658	 28.388730	 0.000004	-8.979748	 2.724057	-0.018718	 1.186199	 3.667116	 0.482962	-3.563712	-4.621464	-0.788243	-91.776220	 78.527470	-180.000000	 54.335130	 38.004650	-57.133900	-15.328180	 0.729053	-4.305449	-28.998850	 2.073901	-4.316979	-2.635965	 4.993658	 6.788941	-5.165319	 0.784187	 3.516649	-5.225038	 0.466231	 0.424329	-0.000002	-3.783157	-0.089647	-3.453944	 4.936062	 0.148902	 89.782170	 78.203900	 179.999900	-44.243350	 27.338070	 73.889370	-1.753541	 4.393058	 19.173650	 21.913500	-4.272268	 0.962206	 6.112037	 4.509576	-0.364401	 4.968462	 1.518543	-9.347576	 5.168945	 0.703820	 2.021906
-0.000521	 0.022840	 1.221149	 0.004035	 0.007284	-0.099064	 9.296700	-14.118690	 177.456300	 0.765542	-36.046240	-2.399544	-27.849840	 82.061740	 22.401240	-2.385833	 28.452760	 0.000004	-9.388807	-14.523320	-177.297200	-0.750101	-36.340560	 2.380950	 27.088960	 82.160280	-21.757490	 2.384658	 28.388730	 0.000004	-10.728990	 2.724069	-0.018717	 1.186198	 3.667102	 0.482971	-3.563710	-4.621453	-0.788244	-91.776260	 78.527450	-179.999900	 53.880470	 37.781790	-56.350770	-16.661380	 0.937691	-5.009745	-28.952450	 2.080008	-4.309483	-2.635965	 4.993658	 6.788941	-5.165319	 0.784187	 3.516649	-5.225038	 0.466231	 0.424329	-0.000002	-3.783157	-0.089647	-3.453946	 4.936061	 0.148902	 89.782220	 78.203850	 179.999900	-38.926780	 24.146440	 81.612140	-3.916278	 2.996822	 15.489440	 18.979080	-4.133517	-0.924205	 6.112037	 4.509576	-0.364401	 4.968462	 1.518543	-9.347576	 5.168945	 0.703820	 2.021906
